<mxfile host="Electron" agent="Mozilla/5.0 (Windows NT 10.0; Win64; x64) AppleWebKit/537.36 (KHTML, like Gecko) draw.io/25.0.2 Chrome/128.0.6613.186 Electron/32.2.5 Safari/537.36" version="25.0.2" pages="6">
  <diagram id="be2f0c4d-3d57-d1e7-14b7-55429f849897" name="P1-RMS">
    <mxGraphModel dx="3100" dy="1590" grid="1" gridSize="10" guides="1" tooltips="1" connect="1" arrows="1" fold="1" page="0" pageScale="1" pageWidth="827" pageHeight="1169" background="#ffffff" math="0" shadow="0">
      <root>
        <mxCell id="0" />
        <mxCell id="1" parent="0" />
        <mxCell id="DuWehQWZcsXFx-6fBHos-342" value="&lt;span style=&quot;color: rgb(64, 64, 64); font-family: KaTeX_Math; font-size: 36px; font-style: italic;&quot;&gt;τ&lt;sub style=&quot;&quot;&gt;1&lt;/sub&gt;&lt;/span&gt;" style="text;html=1;align=center;verticalAlign=middle;resizable=0;points=[];autosize=1;strokeColor=none;fillColor=none;" vertex="1" parent="1">
          <mxGeometry x="530" y="1100" width="50" height="60" as="geometry" />
        </mxCell>
        <mxCell id="DuWehQWZcsXFx-6fBHos-343" value="" style="rounded=0;whiteSpace=wrap;html=1;fillColor=none;strokeWidth=2;" vertex="1" parent="1">
          <mxGeometry x="600" y="1040" width="2480" height="400" as="geometry" />
        </mxCell>
        <mxCell id="DuWehQWZcsXFx-6fBHos-344" value="0" style="text;html=1;align=center;verticalAlign=middle;resizable=0;points=[];autosize=1;strokeColor=none;fillColor=none;fontSize=24;fontFamily=calibri;" vertex="1" parent="1">
          <mxGeometry x="620" y="1453" width="40" height="40" as="geometry" />
        </mxCell>
        <mxCell id="DuWehQWZcsXFx-6fBHos-345" value="2" style="text;html=1;align=center;verticalAlign=middle;resizable=0;points=[];autosize=1;strokeColor=none;fillColor=none;fontSize=24;fontFamily=calibri;" vertex="1" parent="1">
          <mxGeometry x="700" y="1453" width="40" height="40" as="geometry" />
        </mxCell>
        <mxCell id="DuWehQWZcsXFx-6fBHos-346" value="4" style="text;html=1;align=center;verticalAlign=middle;resizable=0;points=[];autosize=1;strokeColor=none;fillColor=none;fontSize=24;fontFamily=calibri;" vertex="1" parent="1">
          <mxGeometry x="780" y="1453" width="40" height="40" as="geometry" />
        </mxCell>
        <mxCell id="DuWehQWZcsXFx-6fBHos-347" value="6" style="text;html=1;align=center;verticalAlign=middle;resizable=0;points=[];autosize=1;strokeColor=none;fillColor=none;fontSize=24;fontFamily=calibri;" vertex="1" parent="1">
          <mxGeometry x="860" y="1453" width="40" height="40" as="geometry" />
        </mxCell>
        <mxCell id="DuWehQWZcsXFx-6fBHos-348" value="8" style="text;html=1;align=center;verticalAlign=middle;resizable=0;points=[];autosize=1;strokeColor=none;fillColor=none;fontSize=24;fontFamily=calibri;" vertex="1" parent="1">
          <mxGeometry x="940" y="1453" width="40" height="40" as="geometry" />
        </mxCell>
        <mxCell id="DuWehQWZcsXFx-6fBHos-349" value="10" style="text;html=1;align=center;verticalAlign=middle;resizable=0;points=[];autosize=1;strokeColor=none;fillColor=none;fontSize=24;fontFamily=calibri;" vertex="1" parent="1">
          <mxGeometry x="1015" y="1453" width="50" height="40" as="geometry" />
        </mxCell>
        <mxCell id="DuWehQWZcsXFx-6fBHos-350" value="12" style="text;html=1;align=center;verticalAlign=middle;resizable=0;points=[];autosize=1;strokeColor=none;fillColor=none;fontSize=24;fontFamily=calibri;" vertex="1" parent="1">
          <mxGeometry x="1095" y="1453" width="50" height="40" as="geometry" />
        </mxCell>
        <mxCell id="DuWehQWZcsXFx-6fBHos-351" value="14" style="text;html=1;align=center;verticalAlign=middle;resizable=0;points=[];autosize=1;strokeColor=none;fillColor=none;fontSize=24;fontFamily=calibri;" vertex="1" parent="1">
          <mxGeometry x="1175" y="1453" width="50" height="40" as="geometry" />
        </mxCell>
        <mxCell id="DuWehQWZcsXFx-6fBHos-352" value="16" style="text;html=1;align=center;verticalAlign=middle;resizable=0;points=[];autosize=1;strokeColor=none;fillColor=none;fontSize=24;fontFamily=calibri;" vertex="1" parent="1">
          <mxGeometry x="1255" y="1453" width="50" height="40" as="geometry" />
        </mxCell>
        <mxCell id="DuWehQWZcsXFx-6fBHos-353" value="18" style="text;html=1;align=center;verticalAlign=middle;resizable=0;points=[];autosize=1;strokeColor=none;fillColor=none;fontSize=24;fontFamily=calibri;" vertex="1" parent="1">
          <mxGeometry x="1335" y="1453" width="50" height="40" as="geometry" />
        </mxCell>
        <mxCell id="DuWehQWZcsXFx-6fBHos-354" value="20" style="text;html=1;align=center;verticalAlign=middle;resizable=0;points=[];autosize=1;strokeColor=none;fillColor=none;fontSize=24;fontFamily=calibri;" vertex="1" parent="1">
          <mxGeometry x="1415" y="1453" width="50" height="40" as="geometry" />
        </mxCell>
        <mxCell id="DuWehQWZcsXFx-6fBHos-355" value="22" style="text;html=1;align=center;verticalAlign=middle;resizable=0;points=[];autosize=1;strokeColor=none;fillColor=none;fontSize=24;fontFamily=calibri;" vertex="1" parent="1">
          <mxGeometry x="1495" y="1453" width="50" height="40" as="geometry" />
        </mxCell>
        <mxCell id="DuWehQWZcsXFx-6fBHos-356" value="24" style="text;html=1;align=center;verticalAlign=middle;resizable=0;points=[];autosize=1;strokeColor=none;fillColor=none;fontSize=24;fontFamily=calibri;" vertex="1" parent="1">
          <mxGeometry x="1575" y="1453" width="50" height="40" as="geometry" />
        </mxCell>
        <mxCell id="DuWehQWZcsXFx-6fBHos-357" value="26" style="text;html=1;align=center;verticalAlign=middle;resizable=0;points=[];autosize=1;strokeColor=none;fillColor=none;fontSize=24;fontFamily=calibri;" vertex="1" parent="1">
          <mxGeometry x="1655" y="1453" width="50" height="40" as="geometry" />
        </mxCell>
        <mxCell id="DuWehQWZcsXFx-6fBHos-358" value="28" style="text;html=1;align=center;verticalAlign=middle;resizable=0;points=[];autosize=1;strokeColor=none;fillColor=none;fontSize=24;fontFamily=calibri;" vertex="1" parent="1">
          <mxGeometry x="1735" y="1453" width="50" height="40" as="geometry" />
        </mxCell>
        <mxCell id="DuWehQWZcsXFx-6fBHos-359" value="30" style="text;html=1;align=center;verticalAlign=middle;resizable=0;points=[];autosize=1;strokeColor=none;fillColor=none;fontSize=24;fontFamily=calibri;" vertex="1" parent="1">
          <mxGeometry x="1815" y="1453" width="50" height="40" as="geometry" />
        </mxCell>
        <mxCell id="DuWehQWZcsXFx-6fBHos-362" value="&lt;span style=&quot;color: rgb(64, 64, 64); font-family: KaTeX_Math; font-size: 36px; font-style: italic;&quot;&gt;τ&lt;sub style=&quot;&quot;&gt;2&lt;/sub&gt;&lt;/span&gt;" style="text;html=1;align=center;verticalAlign=middle;resizable=0;points=[];autosize=1;strokeColor=none;fillColor=none;" vertex="1" parent="1">
          <mxGeometry x="530" y="1220" width="50" height="60" as="geometry" />
        </mxCell>
        <mxCell id="DuWehQWZcsXFx-6fBHos-363" value="&lt;span style=&quot;color: rgb(64, 64, 64); font-family: KaTeX_Math; font-size: 36px; font-style: italic;&quot;&gt;τ&lt;sub style=&quot;&quot;&gt;3&lt;/sub&gt;&lt;/span&gt;" style="text;html=1;align=center;verticalAlign=middle;resizable=0;points=[];autosize=1;strokeColor=none;fillColor=none;" vertex="1" parent="1">
          <mxGeometry x="530" y="1340" width="50" height="60" as="geometry" />
        </mxCell>
        <mxCell id="DuWehQWZcsXFx-6fBHos-368" value="32" style="text;html=1;align=center;verticalAlign=middle;resizable=0;points=[];autosize=1;strokeColor=none;fillColor=none;fontSize=24;fontFamily=calibri;" vertex="1" parent="1">
          <mxGeometry x="1895" y="1453" width="50" height="40" as="geometry" />
        </mxCell>
        <mxCell id="DuWehQWZcsXFx-6fBHos-369" value="34" style="text;html=1;align=center;verticalAlign=middle;resizable=0;points=[];autosize=1;strokeColor=none;fillColor=none;fontSize=24;fontFamily=calibri;" vertex="1" parent="1">
          <mxGeometry x="1975" y="1453" width="50" height="40" as="geometry" />
        </mxCell>
        <mxCell id="DuWehQWZcsXFx-6fBHos-370" value="36" style="text;html=1;align=center;verticalAlign=middle;resizable=0;points=[];autosize=1;strokeColor=none;fillColor=none;fontSize=24;fontFamily=calibri;" vertex="1" parent="1">
          <mxGeometry x="2055" y="1453" width="50" height="40" as="geometry" />
        </mxCell>
        <mxCell id="DuWehQWZcsXFx-6fBHos-371" value="38" style="text;html=1;align=center;verticalAlign=middle;resizable=0;points=[];autosize=1;strokeColor=none;fillColor=none;fontSize=24;fontFamily=calibri;" vertex="1" parent="1">
          <mxGeometry x="2135" y="1453" width="50" height="40" as="geometry" />
        </mxCell>
        <mxCell id="DuWehQWZcsXFx-6fBHos-372" value="40" style="text;html=1;align=center;verticalAlign=middle;resizable=0;points=[];autosize=1;strokeColor=none;fillColor=none;fontSize=24;fontFamily=calibri;" vertex="1" parent="1">
          <mxGeometry x="2215" y="1453" width="50" height="40" as="geometry" />
        </mxCell>
        <mxCell id="DuWehQWZcsXFx-6fBHos-373" value="42" style="text;html=1;align=center;verticalAlign=middle;resizable=0;points=[];autosize=1;strokeColor=none;fillColor=none;fontSize=24;fontFamily=calibri;" vertex="1" parent="1">
          <mxGeometry x="2295" y="1453" width="50" height="40" as="geometry" />
        </mxCell>
        <mxCell id="DuWehQWZcsXFx-6fBHos-374" value="44" style="text;html=1;align=center;verticalAlign=middle;resizable=0;points=[];autosize=1;strokeColor=none;fillColor=none;fontSize=24;fontFamily=calibri;" vertex="1" parent="1">
          <mxGeometry x="2375" y="1453" width="50" height="40" as="geometry" />
        </mxCell>
        <mxCell id="DuWehQWZcsXFx-6fBHos-375" value="46" style="text;html=1;align=center;verticalAlign=middle;resizable=0;points=[];autosize=1;strokeColor=none;fillColor=none;fontSize=24;fontFamily=calibri;" vertex="1" parent="1">
          <mxGeometry x="2455" y="1453" width="50" height="40" as="geometry" />
        </mxCell>
        <mxCell id="DuWehQWZcsXFx-6fBHos-376" value="48" style="text;html=1;align=center;verticalAlign=middle;resizable=0;points=[];autosize=1;strokeColor=none;fillColor=none;fontSize=24;fontFamily=calibri;" vertex="1" parent="1">
          <mxGeometry x="2535" y="1453" width="50" height="40" as="geometry" />
        </mxCell>
        <mxCell id="DuWehQWZcsXFx-6fBHos-377" value="50" style="text;html=1;align=center;verticalAlign=middle;resizable=0;points=[];autosize=1;strokeColor=none;fillColor=none;fontSize=24;fontFamily=calibri;" vertex="1" parent="1">
          <mxGeometry x="2615" y="1453" width="50" height="40" as="geometry" />
        </mxCell>
        <mxCell id="DuWehQWZcsXFx-6fBHos-378" value="52" style="text;html=1;align=center;verticalAlign=middle;resizable=0;points=[];autosize=1;strokeColor=none;fillColor=none;fontSize=24;fontFamily=calibri;" vertex="1" parent="1">
          <mxGeometry x="2695" y="1453" width="50" height="40" as="geometry" />
        </mxCell>
        <mxCell id="DuWehQWZcsXFx-6fBHos-379" value="54" style="text;html=1;align=center;verticalAlign=middle;resizable=0;points=[];autosize=1;strokeColor=none;fillColor=none;fontSize=24;fontFamily=calibri;" vertex="1" parent="1">
          <mxGeometry x="2775" y="1453" width="50" height="40" as="geometry" />
        </mxCell>
        <mxCell id="DuWehQWZcsXFx-6fBHos-380" value="56" style="text;html=1;align=center;verticalAlign=middle;resizable=0;points=[];autosize=1;strokeColor=none;fillColor=none;fontSize=24;fontFamily=calibri;" vertex="1" parent="1">
          <mxGeometry x="2855" y="1453" width="50" height="40" as="geometry" />
        </mxCell>
        <mxCell id="DuWehQWZcsXFx-6fBHos-381" value="58" style="text;html=1;align=center;verticalAlign=middle;resizable=0;points=[];autosize=1;strokeColor=none;fillColor=none;fontSize=24;fontFamily=calibri;" vertex="1" parent="1">
          <mxGeometry x="2935" y="1453" width="50" height="40" as="geometry" />
        </mxCell>
        <mxCell id="DuWehQWZcsXFx-6fBHos-382" value="60" style="text;html=1;align=center;verticalAlign=middle;resizable=0;points=[];autosize=1;strokeColor=none;fillColor=none;fontSize=24;fontFamily=calibri;" vertex="1" parent="1">
          <mxGeometry x="3015" y="1453" width="50" height="40" as="geometry" />
        </mxCell>
        <mxCell id="DuWehQWZcsXFx-6fBHos-395" value="" style="rounded=0;whiteSpace=wrap;html=1;fillColor=#ffe6cc;strokeColor=#d79b00;" vertex="1" parent="1">
          <mxGeometry x="640" y="1120" width="80" height="40" as="geometry" />
        </mxCell>
        <mxCell id="DuWehQWZcsXFx-6fBHos-397" value="" style="rounded=0;whiteSpace=wrap;html=1;fillColor=#ffe6cc;strokeColor=#d79b00;" vertex="1" parent="1">
          <mxGeometry x="1040" y="1120" width="80" height="40" as="geometry" />
        </mxCell>
        <mxCell id="DuWehQWZcsXFx-6fBHos-398" value="" style="rounded=0;whiteSpace=wrap;html=1;fillColor=#ffe6cc;strokeColor=#d79b00;" vertex="1" parent="1">
          <mxGeometry x="1440" y="1120" width="80" height="40" as="geometry" />
        </mxCell>
        <mxCell id="DuWehQWZcsXFx-6fBHos-399" value="" style="rounded=0;whiteSpace=wrap;html=1;fillColor=#ffe6cc;strokeColor=#d79b00;" vertex="1" parent="1">
          <mxGeometry x="1840" y="1120" width="80" height="40" as="geometry" />
        </mxCell>
        <mxCell id="DuWehQWZcsXFx-6fBHos-400" value="" style="rounded=0;whiteSpace=wrap;html=1;fillColor=#ffe6cc;strokeColor=#d79b00;" vertex="1" parent="1">
          <mxGeometry x="2240" y="1120" width="80" height="40" as="geometry" />
        </mxCell>
        <mxCell id="DuWehQWZcsXFx-6fBHos-401" value="" style="rounded=0;whiteSpace=wrap;html=1;fillColor=#ffe6cc;strokeColor=#d79b00;" vertex="1" parent="1">
          <mxGeometry x="2640" y="1120" width="80" height="40" as="geometry" />
        </mxCell>
        <mxCell id="DuWehQWZcsXFx-6fBHos-394" value="" style="endArrow=classic;html=1;rounded=0;" edge="1" parent="1">
          <mxGeometry width="50" height="50" relative="1" as="geometry">
            <mxPoint x="639.41" y="1160" as="sourcePoint" />
            <mxPoint x="639.41" y="1080" as="targetPoint" />
          </mxGeometry>
        </mxCell>
        <mxCell id="DuWehQWZcsXFx-6fBHos-364" value="" style="endArrow=classic;startArrow=classic;html=1;rounded=0;" edge="1" parent="1">
          <mxGeometry width="50" height="50" relative="1" as="geometry">
            <mxPoint x="1040" y="1160" as="sourcePoint" />
            <mxPoint x="1040" y="1080" as="targetPoint" />
          </mxGeometry>
        </mxCell>
        <mxCell id="DuWehQWZcsXFx-6fBHos-365" value="" style="endArrow=classic;startArrow=classic;html=1;rounded=0;" edge="1" parent="1">
          <mxGeometry width="50" height="50" relative="1" as="geometry">
            <mxPoint x="1439.17" y="1160" as="sourcePoint" />
            <mxPoint x="1439.17" y="1080" as="targetPoint" />
          </mxGeometry>
        </mxCell>
        <mxCell id="DuWehQWZcsXFx-6fBHos-366" value="" style="endArrow=classic;startArrow=classic;html=1;rounded=0;" edge="1" parent="1">
          <mxGeometry width="50" height="50" relative="1" as="geometry">
            <mxPoint x="1839.17" y="1160" as="sourcePoint" />
            <mxPoint x="1839.17" y="1080" as="targetPoint" />
          </mxGeometry>
        </mxCell>
        <mxCell id="DuWehQWZcsXFx-6fBHos-383" value="" style="endArrow=classic;startArrow=classic;html=1;rounded=0;" edge="1" parent="1">
          <mxGeometry width="50" height="50" relative="1" as="geometry">
            <mxPoint x="2239.37" y="1160" as="sourcePoint" />
            <mxPoint x="2239.37" y="1080" as="targetPoint" />
          </mxGeometry>
        </mxCell>
        <mxCell id="DuWehQWZcsXFx-6fBHos-384" value="" style="endArrow=classic;startArrow=classic;html=1;rounded=0;" edge="1" parent="1">
          <mxGeometry width="50" height="50" relative="1" as="geometry">
            <mxPoint x="2639.37" y="1160" as="sourcePoint" />
            <mxPoint x="2639.37" y="1080" as="targetPoint" />
          </mxGeometry>
        </mxCell>
        <mxCell id="DuWehQWZcsXFx-6fBHos-385" value="" style="endArrow=classic;startArrow=classic;html=1;rounded=0;" edge="1" parent="1">
          <mxGeometry width="50" height="50" relative="1" as="geometry">
            <mxPoint x="3039.37" y="1160" as="sourcePoint" />
            <mxPoint x="3039.37" y="1080" as="targetPoint" />
          </mxGeometry>
        </mxCell>
        <mxCell id="DuWehQWZcsXFx-6fBHos-341" value="" style="endArrow=classic;html=1;rounded=0;entryX=0.984;entryY=0.3;entryDx=0;entryDy=0;entryPerimeter=0;strokeWidth=3;" edge="1" parent="1" target="DuWehQWZcsXFx-6fBHos-343">
          <mxGeometry width="50" height="50" relative="1" as="geometry">
            <mxPoint x="640" y="1160" as="sourcePoint" />
            <mxPoint x="1840" y="1160" as="targetPoint" />
          </mxGeometry>
        </mxCell>
        <mxCell id="DuWehQWZcsXFx-6fBHos-402" value="" style="rounded=0;whiteSpace=wrap;html=1;fillColor=#f8cecc;strokeColor=#b85450;" vertex="1" parent="1">
          <mxGeometry x="720" y="1240" width="200" height="40" as="geometry" />
        </mxCell>
        <mxCell id="DuWehQWZcsXFx-6fBHos-404" value="" style="rounded=0;whiteSpace=wrap;html=1;fillColor=#f8cecc;strokeColor=#b85450;" vertex="1" parent="1">
          <mxGeometry x="1520" y="1240" width="200" height="40" as="geometry" />
        </mxCell>
        <mxCell id="DuWehQWZcsXFx-6fBHos-405" value="" style="rounded=0;whiteSpace=wrap;html=1;fillColor=#f8cecc;strokeColor=#b85450;" vertex="1" parent="1">
          <mxGeometry x="2320" y="1240" width="200" height="40" as="geometry" />
        </mxCell>
        <mxCell id="DuWehQWZcsXFx-6fBHos-406" value="" style="rounded=0;whiteSpace=wrap;html=1;fillColor=#d5e8d4;strokeColor=#82b366;" vertex="1" parent="1">
          <mxGeometry x="920" y="1360" width="120" height="40" as="geometry" />
        </mxCell>
        <mxCell id="DuWehQWZcsXFx-6fBHos-407" value="" style="rounded=0;whiteSpace=wrap;html=1;fillColor=#d5e8d4;strokeColor=#82b366;" vertex="1" parent="1">
          <mxGeometry x="1920" y="1360" width="320" height="40" as="geometry" />
        </mxCell>
        <mxCell id="DuWehQWZcsXFx-6fBHos-360" value="" style="endArrow=classic;html=1;rounded=0;entryX=0.984;entryY=0.6;entryDx=0;entryDy=0;entryPerimeter=0;strokeWidth=3;" edge="1" parent="1" target="DuWehQWZcsXFx-6fBHos-343">
          <mxGeometry width="50" height="50" relative="1" as="geometry">
            <mxPoint x="640" y="1280" as="sourcePoint" />
            <mxPoint x="1840" y="1280" as="targetPoint" />
          </mxGeometry>
        </mxCell>
        <mxCell id="DuWehQWZcsXFx-6fBHos-393" value="" style="endArrow=classic;html=1;rounded=0;" edge="1" parent="1">
          <mxGeometry width="50" height="50" relative="1" as="geometry">
            <mxPoint x="639.41" y="1280" as="sourcePoint" />
            <mxPoint x="639.41" y="1200" as="targetPoint" />
          </mxGeometry>
        </mxCell>
        <mxCell id="DuWehQWZcsXFx-6fBHos-367" value="" style="endArrow=classic;startArrow=classic;html=1;rounded=0;" edge="1" parent="1">
          <mxGeometry width="50" height="50" relative="1" as="geometry">
            <mxPoint x="1439.17" y="1280" as="sourcePoint" />
            <mxPoint x="1439.17" y="1200" as="targetPoint" />
          </mxGeometry>
        </mxCell>
        <mxCell id="DuWehQWZcsXFx-6fBHos-386" value="" style="endArrow=classic;startArrow=classic;html=1;rounded=0;" edge="1" parent="1">
          <mxGeometry width="50" height="50" relative="1" as="geometry">
            <mxPoint x="2239.37" y="1280" as="sourcePoint" />
            <mxPoint x="2239.37" y="1200" as="targetPoint" />
          </mxGeometry>
        </mxCell>
        <mxCell id="DuWehQWZcsXFx-6fBHos-387" value="" style="endArrow=classic;startArrow=classic;html=1;rounded=0;" edge="1" parent="1">
          <mxGeometry width="50" height="50" relative="1" as="geometry">
            <mxPoint x="3039.37" y="1280" as="sourcePoint" />
            <mxPoint x="3039.37" y="1200" as="targetPoint" />
          </mxGeometry>
        </mxCell>
        <mxCell id="DuWehQWZcsXFx-6fBHos-392" value="" style="endArrow=classic;html=1;rounded=0;" edge="1" parent="1">
          <mxGeometry width="50" height="50" relative="1" as="geometry">
            <mxPoint x="639.41" y="1400" as="sourcePoint" />
            <mxPoint x="639.41" y="1320" as="targetPoint" />
          </mxGeometry>
        </mxCell>
        <mxCell id="DuWehQWZcsXFx-6fBHos-388" value="" style="endArrow=classic;startArrow=classic;html=1;rounded=0;" edge="1" parent="1">
          <mxGeometry width="50" height="50" relative="1" as="geometry">
            <mxPoint x="1839.3700000000001" y="1400" as="sourcePoint" />
            <mxPoint x="1839.3700000000001" y="1320" as="targetPoint" />
          </mxGeometry>
        </mxCell>
        <mxCell id="DuWehQWZcsXFx-6fBHos-389" value="" style="endArrow=classic;startArrow=classic;html=1;rounded=0;" edge="1" parent="1">
          <mxGeometry width="50" height="50" relative="1" as="geometry">
            <mxPoint x="3039.37" y="1400" as="sourcePoint" />
            <mxPoint x="3039.37" y="1320" as="targetPoint" />
          </mxGeometry>
        </mxCell>
        <mxCell id="3ijygJYbdHqGPLrZWq1h-1" value="" style="rounded=0;whiteSpace=wrap;html=1;fillColor=#d5e8d4;strokeColor=#82b366;" vertex="1" parent="1">
          <mxGeometry x="1120" y="1360" width="200" height="40" as="geometry" />
        </mxCell>
        <mxCell id="DuWehQWZcsXFx-6fBHos-361" value="" style="endArrow=classic;html=1;rounded=0;entryX=0.984;entryY=0.9;entryDx=0;entryDy=0;entryPerimeter=0;strokeWidth=3;" edge="1" parent="1" target="DuWehQWZcsXFx-6fBHos-343">
          <mxGeometry width="50" height="50" relative="1" as="geometry">
            <mxPoint x="640" y="1400" as="sourcePoint" />
            <mxPoint x="1840" y="1400" as="targetPoint" />
          </mxGeometry>
        </mxCell>
      </root>
    </mxGraphModel>
  </diagram>
  <diagram id="ZKDe_WMPU-BafUVhGigq" name="P1-RMS vs EDF">
    <mxGraphModel dx="2625" dy="1793" grid="1" gridSize="10" guides="1" tooltips="1" connect="1" arrows="1" fold="1" page="1" pageScale="1" pageWidth="850" pageHeight="1100" math="0" shadow="0">
      <root>
        <mxCell id="0" />
        <mxCell id="1" parent="0" />
        <mxCell id="SIjo5yoV_u21qgaPCIHs-2" value="" style="rounded=0;whiteSpace=wrap;html=1;fillColor=none;strokeWidth=2;" vertex="1" parent="1">
          <mxGeometry x="80" y="520" width="2480" height="160" as="geometry" />
        </mxCell>
        <mxCell id="SIjo5yoV_u21qgaPCIHs-3" value="0" style="text;html=1;align=center;verticalAlign=middle;resizable=0;points=[];autosize=1;strokeColor=none;fillColor=none;fontSize=24;fontFamily=calibri;" vertex="1" parent="1">
          <mxGeometry x="100.5" y="690" width="40" height="40" as="geometry" />
        </mxCell>
        <mxCell id="SIjo5yoV_u21qgaPCIHs-4" value="2" style="text;html=1;align=center;verticalAlign=middle;resizable=0;points=[];autosize=1;strokeColor=none;fillColor=none;fontSize=24;fontFamily=calibri;" vertex="1" parent="1">
          <mxGeometry x="180.5" y="690" width="40" height="40" as="geometry" />
        </mxCell>
        <mxCell id="SIjo5yoV_u21qgaPCIHs-5" value="4" style="text;html=1;align=center;verticalAlign=middle;resizable=0;points=[];autosize=1;strokeColor=none;fillColor=none;fontSize=24;fontFamily=calibri;" vertex="1" parent="1">
          <mxGeometry x="260.5" y="690" width="40" height="40" as="geometry" />
        </mxCell>
        <mxCell id="SIjo5yoV_u21qgaPCIHs-6" value="6" style="text;html=1;align=center;verticalAlign=middle;resizable=0;points=[];autosize=1;strokeColor=none;fillColor=none;fontSize=24;fontFamily=calibri;" vertex="1" parent="1">
          <mxGeometry x="340.5" y="690" width="40" height="40" as="geometry" />
        </mxCell>
        <mxCell id="SIjo5yoV_u21qgaPCIHs-7" value="8" style="text;html=1;align=center;verticalAlign=middle;resizable=0;points=[];autosize=1;strokeColor=none;fillColor=none;fontSize=24;fontFamily=calibri;" vertex="1" parent="1">
          <mxGeometry x="420.5" y="690" width="40" height="40" as="geometry" />
        </mxCell>
        <mxCell id="SIjo5yoV_u21qgaPCIHs-8" value="10" style="text;html=1;align=center;verticalAlign=middle;resizable=0;points=[];autosize=1;strokeColor=none;fillColor=none;fontSize=24;fontFamily=calibri;" vertex="1" parent="1">
          <mxGeometry x="495.5" y="690" width="50" height="40" as="geometry" />
        </mxCell>
        <mxCell id="SIjo5yoV_u21qgaPCIHs-9" value="12" style="text;html=1;align=center;verticalAlign=middle;resizable=0;points=[];autosize=1;strokeColor=none;fillColor=none;fontSize=24;fontFamily=calibri;" vertex="1" parent="1">
          <mxGeometry x="575.5" y="690" width="50" height="40" as="geometry" />
        </mxCell>
        <mxCell id="SIjo5yoV_u21qgaPCIHs-10" value="14" style="text;html=1;align=center;verticalAlign=middle;resizable=0;points=[];autosize=1;strokeColor=none;fillColor=none;fontSize=24;fontFamily=calibri;" vertex="1" parent="1">
          <mxGeometry x="655.5" y="690" width="50" height="40" as="geometry" />
        </mxCell>
        <mxCell id="SIjo5yoV_u21qgaPCIHs-11" value="16" style="text;html=1;align=center;verticalAlign=middle;resizable=0;points=[];autosize=1;strokeColor=none;fillColor=none;fontSize=24;fontFamily=calibri;" vertex="1" parent="1">
          <mxGeometry x="735.5" y="690" width="50" height="40" as="geometry" />
        </mxCell>
        <mxCell id="SIjo5yoV_u21qgaPCIHs-12" value="18" style="text;html=1;align=center;verticalAlign=middle;resizable=0;points=[];autosize=1;strokeColor=none;fillColor=none;fontSize=24;fontFamily=calibri;" vertex="1" parent="1">
          <mxGeometry x="815.5" y="690" width="50" height="40" as="geometry" />
        </mxCell>
        <mxCell id="SIjo5yoV_u21qgaPCIHs-13" value="20" style="text;html=1;align=center;verticalAlign=middle;resizable=0;points=[];autosize=1;strokeColor=none;fillColor=none;fontSize=24;fontFamily=calibri;" vertex="1" parent="1">
          <mxGeometry x="895.5" y="690" width="50" height="40" as="geometry" />
        </mxCell>
        <mxCell id="SIjo5yoV_u21qgaPCIHs-14" value="22" style="text;html=1;align=center;verticalAlign=middle;resizable=0;points=[];autosize=1;strokeColor=none;fillColor=none;fontSize=24;fontFamily=calibri;" vertex="1" parent="1">
          <mxGeometry x="975.5" y="690" width="50" height="40" as="geometry" />
        </mxCell>
        <mxCell id="SIjo5yoV_u21qgaPCIHs-15" value="24" style="text;html=1;align=center;verticalAlign=middle;resizable=0;points=[];autosize=1;strokeColor=none;fillColor=none;fontSize=24;fontFamily=calibri;" vertex="1" parent="1">
          <mxGeometry x="1055.5" y="690" width="50" height="40" as="geometry" />
        </mxCell>
        <mxCell id="SIjo5yoV_u21qgaPCIHs-16" value="26" style="text;html=1;align=center;verticalAlign=middle;resizable=0;points=[];autosize=1;strokeColor=none;fillColor=none;fontSize=24;fontFamily=calibri;" vertex="1" parent="1">
          <mxGeometry x="1135.5" y="690" width="50" height="40" as="geometry" />
        </mxCell>
        <mxCell id="SIjo5yoV_u21qgaPCIHs-17" value="28" style="text;html=1;align=center;verticalAlign=middle;resizable=0;points=[];autosize=1;strokeColor=none;fillColor=none;fontSize=24;fontFamily=calibri;" vertex="1" parent="1">
          <mxGeometry x="1215.5" y="690" width="50" height="40" as="geometry" />
        </mxCell>
        <mxCell id="SIjo5yoV_u21qgaPCIHs-18" value="30" style="text;html=1;align=center;verticalAlign=middle;resizable=0;points=[];autosize=1;strokeColor=none;fillColor=none;fontSize=24;fontFamily=calibri;" vertex="1" parent="1">
          <mxGeometry x="1295.5" y="690" width="50" height="40" as="geometry" />
        </mxCell>
        <mxCell id="SIjo5yoV_u21qgaPCIHs-21" value="32" style="text;html=1;align=center;verticalAlign=middle;resizable=0;points=[];autosize=1;strokeColor=none;fillColor=none;fontSize=24;fontFamily=calibri;" vertex="1" parent="1">
          <mxGeometry x="1375.5" y="690" width="50" height="40" as="geometry" />
        </mxCell>
        <mxCell id="SIjo5yoV_u21qgaPCIHs-22" value="34" style="text;html=1;align=center;verticalAlign=middle;resizable=0;points=[];autosize=1;strokeColor=none;fillColor=none;fontSize=24;fontFamily=calibri;" vertex="1" parent="1">
          <mxGeometry x="1455.5" y="690" width="50" height="40" as="geometry" />
        </mxCell>
        <mxCell id="SIjo5yoV_u21qgaPCIHs-23" value="36" style="text;html=1;align=center;verticalAlign=middle;resizable=0;points=[];autosize=1;strokeColor=none;fillColor=none;fontSize=24;fontFamily=calibri;" vertex="1" parent="1">
          <mxGeometry x="1535.5" y="690" width="50" height="40" as="geometry" />
        </mxCell>
        <mxCell id="SIjo5yoV_u21qgaPCIHs-24" value="38" style="text;html=1;align=center;verticalAlign=middle;resizable=0;points=[];autosize=1;strokeColor=none;fillColor=none;fontSize=24;fontFamily=calibri;" vertex="1" parent="1">
          <mxGeometry x="1615.5" y="690" width="50" height="40" as="geometry" />
        </mxCell>
        <mxCell id="SIjo5yoV_u21qgaPCIHs-25" value="40" style="text;html=1;align=center;verticalAlign=middle;resizable=0;points=[];autosize=1;strokeColor=none;fillColor=none;fontSize=24;fontFamily=calibri;" vertex="1" parent="1">
          <mxGeometry x="1695.5" y="690" width="50" height="40" as="geometry" />
        </mxCell>
        <mxCell id="SIjo5yoV_u21qgaPCIHs-26" value="42" style="text;html=1;align=center;verticalAlign=middle;resizable=0;points=[];autosize=1;strokeColor=none;fillColor=none;fontSize=24;fontFamily=calibri;" vertex="1" parent="1">
          <mxGeometry x="1775.5" y="690" width="50" height="40" as="geometry" />
        </mxCell>
        <mxCell id="SIjo5yoV_u21qgaPCIHs-27" value="44" style="text;html=1;align=center;verticalAlign=middle;resizable=0;points=[];autosize=1;strokeColor=none;fillColor=none;fontSize=24;fontFamily=calibri;" vertex="1" parent="1">
          <mxGeometry x="1855.5" y="690" width="50" height="40" as="geometry" />
        </mxCell>
        <mxCell id="SIjo5yoV_u21qgaPCIHs-28" value="46" style="text;html=1;align=center;verticalAlign=middle;resizable=0;points=[];autosize=1;strokeColor=none;fillColor=none;fontSize=24;fontFamily=calibri;" vertex="1" parent="1">
          <mxGeometry x="1935.5" y="690" width="50" height="40" as="geometry" />
        </mxCell>
        <mxCell id="SIjo5yoV_u21qgaPCIHs-29" value="48" style="text;html=1;align=center;verticalAlign=middle;resizable=0;points=[];autosize=1;strokeColor=none;fillColor=none;fontSize=24;fontFamily=calibri;" vertex="1" parent="1">
          <mxGeometry x="2015.5" y="690" width="50" height="40" as="geometry" />
        </mxCell>
        <mxCell id="SIjo5yoV_u21qgaPCIHs-30" value="50" style="text;html=1;align=center;verticalAlign=middle;resizable=0;points=[];autosize=1;strokeColor=none;fillColor=none;fontSize=24;fontFamily=calibri;" vertex="1" parent="1">
          <mxGeometry x="2095.5" y="690" width="50" height="40" as="geometry" />
        </mxCell>
        <mxCell id="SIjo5yoV_u21qgaPCIHs-31" value="52" style="text;html=1;align=center;verticalAlign=middle;resizable=0;points=[];autosize=1;strokeColor=none;fillColor=none;fontSize=24;fontFamily=calibri;" vertex="1" parent="1">
          <mxGeometry x="2175.5" y="690" width="50" height="40" as="geometry" />
        </mxCell>
        <mxCell id="SIjo5yoV_u21qgaPCIHs-32" value="54" style="text;html=1;align=center;verticalAlign=middle;resizable=0;points=[];autosize=1;strokeColor=none;fillColor=none;fontSize=24;fontFamily=calibri;" vertex="1" parent="1">
          <mxGeometry x="2255.5" y="690" width="50" height="40" as="geometry" />
        </mxCell>
        <mxCell id="SIjo5yoV_u21qgaPCIHs-33" value="56" style="text;html=1;align=center;verticalAlign=middle;resizable=0;points=[];autosize=1;strokeColor=none;fillColor=none;fontSize=24;fontFamily=calibri;" vertex="1" parent="1">
          <mxGeometry x="2335.5" y="690" width="50" height="40" as="geometry" />
        </mxCell>
        <mxCell id="SIjo5yoV_u21qgaPCIHs-34" value="58" style="text;html=1;align=center;verticalAlign=middle;resizable=0;points=[];autosize=1;strokeColor=none;fillColor=none;fontSize=24;fontFamily=calibri;" vertex="1" parent="1">
          <mxGeometry x="2415.5" y="690" width="50" height="40" as="geometry" />
        </mxCell>
        <mxCell id="SIjo5yoV_u21qgaPCIHs-35" value="60" style="text;html=1;align=center;verticalAlign=middle;resizable=0;points=[];autosize=1;strokeColor=none;fillColor=none;fontSize=24;fontFamily=calibri;" vertex="1" parent="1">
          <mxGeometry x="2495.5" y="690" width="50" height="40" as="geometry" />
        </mxCell>
        <mxCell id="SIjo5yoV_u21qgaPCIHs-36" value="&lt;span style=&quot;color: rgb(64, 64, 64); font-family: KaTeX_Math; font-size: 28px; font-style: italic; text-wrap: nowrap;&quot;&gt;τ&lt;/span&gt;&lt;span style=&quot;color: rgb(64, 64, 64); font-family: KaTeX_Math; font-style: italic; text-wrap: nowrap; font-size: 28px;&quot;&gt;&lt;sub&gt;1&lt;/sub&gt;&lt;/span&gt;" style="rounded=0;whiteSpace=wrap;html=1;fillColor=#ffe6cc;strokeColor=#d79b00;fontSize=28;" vertex="1" parent="1">
          <mxGeometry x="120" y="600" width="80" height="40" as="geometry" />
        </mxCell>
        <mxCell id="SIjo5yoV_u21qgaPCIHs-37" value="&lt;span style=&quot;color: rgb(64, 64, 64); font-family: KaTeX_Math; font-size: 28px; font-style: italic; text-wrap: nowrap;&quot;&gt;τ&lt;/span&gt;&lt;span style=&quot;color: rgb(64, 64, 64); font-family: KaTeX_Math; font-style: italic; text-wrap: nowrap; font-size: 28px;&quot;&gt;&lt;sub&gt;1&lt;/sub&gt;&lt;/span&gt;" style="rounded=0;whiteSpace=wrap;html=1;fillColor=#ffe6cc;strokeColor=#d79b00;fontSize=28;" vertex="1" parent="1">
          <mxGeometry x="520" y="600" width="80" height="40" as="geometry" />
        </mxCell>
        <mxCell id="SIjo5yoV_u21qgaPCIHs-38" value="&lt;span style=&quot;color: rgb(64, 64, 64); font-family: KaTeX_Math; font-size: 28px; font-style: italic; text-wrap: nowrap;&quot;&gt;τ&lt;/span&gt;&lt;span style=&quot;color: rgb(64, 64, 64); font-family: KaTeX_Math; font-style: italic; text-wrap: nowrap; font-size: 28px;&quot;&gt;&lt;sub&gt;1&lt;/sub&gt;&lt;/span&gt;" style="rounded=0;whiteSpace=wrap;html=1;fillColor=#ffe6cc;strokeColor=#d79b00;fontSize=28;" vertex="1" parent="1">
          <mxGeometry x="920" y="600" width="80" height="40" as="geometry" />
        </mxCell>
        <mxCell id="SIjo5yoV_u21qgaPCIHs-39" value="&lt;span style=&quot;color: rgb(64, 64, 64); font-family: KaTeX_Math; font-size: 28px; font-style: italic; text-wrap: nowrap;&quot;&gt;τ&lt;/span&gt;&lt;span style=&quot;color: rgb(64, 64, 64); font-family: KaTeX_Math; font-style: italic; text-wrap: nowrap; font-size: 28px;&quot;&gt;&lt;sub&gt;1&lt;/sub&gt;&lt;/span&gt;" style="rounded=0;whiteSpace=wrap;html=1;fillColor=#ffe6cc;strokeColor=#d79b00;fontSize=28;" vertex="1" parent="1">
          <mxGeometry x="1320" y="600" width="80" height="40" as="geometry" />
        </mxCell>
        <mxCell id="SIjo5yoV_u21qgaPCIHs-40" value="&lt;span style=&quot;color: rgb(64, 64, 64); font-family: KaTeX_Math; font-size: 28px; font-style: italic; text-wrap: nowrap;&quot;&gt;τ&lt;/span&gt;&lt;span style=&quot;color: rgb(64, 64, 64); font-family: KaTeX_Math; font-style: italic; text-wrap: nowrap; font-size: 28px;&quot;&gt;&lt;sub&gt;1&lt;/sub&gt;&lt;/span&gt;" style="rounded=0;whiteSpace=wrap;html=1;fillColor=#ffe6cc;strokeColor=#d79b00;fontSize=28;" vertex="1" parent="1">
          <mxGeometry x="1720" y="600" width="80" height="40" as="geometry" />
        </mxCell>
        <mxCell id="SIjo5yoV_u21qgaPCIHs-41" value="&lt;span style=&quot;color: rgb(64, 64, 64); font-family: KaTeX_Math; font-size: 28px; font-style: italic; text-wrap: nowrap;&quot;&gt;τ&lt;/span&gt;&lt;span style=&quot;color: rgb(64, 64, 64); font-family: KaTeX_Math; font-style: italic; text-wrap: nowrap; font-size: 28px;&quot;&gt;&lt;sub&gt;1&lt;/sub&gt;&lt;/span&gt;" style="rounded=0;whiteSpace=wrap;html=1;fillColor=#ffe6cc;strokeColor=#d79b00;fontSize=28;" vertex="1" parent="1">
          <mxGeometry x="2120" y="600" width="80" height="40" as="geometry" />
        </mxCell>
        <mxCell id="SIjo5yoV_u21qgaPCIHs-44" value="" style="endArrow=classic;startArrow=classic;html=1;rounded=0;fontSize=36;" edge="1" parent="1">
          <mxGeometry width="50" height="50" relative="1" as="geometry">
            <mxPoint x="919.1700000000001" y="640" as="sourcePoint" />
            <mxPoint x="919.1700000000001" y="560" as="targetPoint" />
          </mxGeometry>
        </mxCell>
        <mxCell id="SIjo5yoV_u21qgaPCIHs-45" value="" style="endArrow=classic;startArrow=classic;html=1;rounded=0;fontSize=36;" edge="1" parent="1">
          <mxGeometry width="50" height="50" relative="1" as="geometry">
            <mxPoint x="1319.17" y="640" as="sourcePoint" />
            <mxPoint x="1319.17" y="560" as="targetPoint" />
          </mxGeometry>
        </mxCell>
        <mxCell id="SIjo5yoV_u21qgaPCIHs-47" value="" style="endArrow=classic;startArrow=classic;html=1;rounded=0;fontSize=36;" edge="1" parent="1">
          <mxGeometry width="50" height="50" relative="1" as="geometry">
            <mxPoint x="2119.37" y="640" as="sourcePoint" />
            <mxPoint x="2119.37" y="560" as="targetPoint" />
          </mxGeometry>
        </mxCell>
        <mxCell id="SIjo5yoV_u21qgaPCIHs-48" value="" style="endArrow=classic;startArrow=classic;html=1;rounded=0;fontSize=36;" edge="1" parent="1">
          <mxGeometry width="50" height="50" relative="1" as="geometry">
            <mxPoint x="2519.37" y="640" as="sourcePoint" />
            <mxPoint x="2519.37" y="560" as="targetPoint" />
          </mxGeometry>
        </mxCell>
        <mxCell id="SIjo5yoV_u21qgaPCIHs-50" value="&lt;span style=&quot;color: rgb(64, 64, 64); font-family: KaTeX_Math; font-size: 28px; font-style: italic; text-wrap: nowrap;&quot;&gt;τ&lt;/span&gt;&lt;span style=&quot;color: rgb(64, 64, 64); font-family: KaTeX_Math; font-style: italic; text-wrap: nowrap; font-size: 28px;&quot;&gt;&lt;sub&gt;2&lt;/sub&gt;&lt;/span&gt;" style="rounded=0;whiteSpace=wrap;html=1;fillColor=#f8cecc;strokeColor=#b85450;fontSize=28;" vertex="1" parent="1">
          <mxGeometry x="200" y="600" width="200" height="40" as="geometry" />
        </mxCell>
        <mxCell id="SIjo5yoV_u21qgaPCIHs-51" value="&lt;span style=&quot;color: rgb(64, 64, 64); font-family: KaTeX_Math; font-size: 28px; font-style: italic; text-wrap: nowrap;&quot;&gt;τ&lt;/span&gt;&lt;span style=&quot;color: rgb(64, 64, 64); font-family: KaTeX_Math; font-style: italic; text-wrap: nowrap; font-size: 28px;&quot;&gt;&lt;sub&gt;2&lt;/sub&gt;&lt;/span&gt;" style="rounded=0;whiteSpace=wrap;html=1;fillColor=#f8cecc;strokeColor=#b85450;fontSize=28;" vertex="1" parent="1">
          <mxGeometry x="1000" y="600" width="200" height="40" as="geometry" />
        </mxCell>
        <mxCell id="SIjo5yoV_u21qgaPCIHs-52" value="&lt;span style=&quot;color: rgb(64, 64, 64); font-family: KaTeX_Math; font-size: 28px; font-style: italic; text-wrap: nowrap;&quot;&gt;τ&lt;/span&gt;&lt;span style=&quot;color: rgb(64, 64, 64); font-family: KaTeX_Math; font-style: italic; text-wrap: nowrap; font-size: 28px;&quot;&gt;&lt;sub&gt;2&lt;/sub&gt;&lt;/span&gt;" style="rounded=0;whiteSpace=wrap;html=1;fillColor=#f8cecc;strokeColor=#b85450;fontSize=28;" vertex="1" parent="1">
          <mxGeometry x="1800" y="600" width="200" height="40" as="geometry" />
        </mxCell>
        <mxCell id="SIjo5yoV_u21qgaPCIHs-53" value="&lt;span style=&quot;color: rgb(64, 64, 64); font-family: KaTeX_Math; font-size: 28px; font-style: italic; text-wrap: nowrap;&quot;&gt;τ&lt;/span&gt;&lt;span style=&quot;color: rgb(64, 64, 64); font-family: KaTeX_Math; font-style: italic; text-wrap: nowrap; font-size: 28px;&quot;&gt;&lt;sub&gt;3&lt;/sub&gt;&lt;/span&gt;" style="rounded=0;whiteSpace=wrap;html=1;fillColor=#d5e8d4;strokeColor=#82b366;fontSize=28;" vertex="1" parent="1">
          <mxGeometry x="400" y="600" width="120" height="40" as="geometry" />
        </mxCell>
        <mxCell id="SIjo5yoV_u21qgaPCIHs-54" value="&lt;span style=&quot;color: rgb(64, 64, 64); font-family: KaTeX_Math; font-size: 28px; font-style: italic; text-wrap: nowrap;&quot;&gt;τ&lt;/span&gt;&lt;span style=&quot;color: rgb(64, 64, 64); font-family: KaTeX_Math; font-style: italic; text-wrap: nowrap; font-size: 28px;&quot;&gt;&lt;sub&gt;3&lt;/sub&gt;&lt;/span&gt;" style="rounded=0;whiteSpace=wrap;html=1;fillColor=#d5e8d4;strokeColor=#82b366;fontSize=28;" vertex="1" parent="1">
          <mxGeometry x="1400" y="600" width="320" height="40" as="geometry" />
        </mxCell>
        <mxCell id="SIjo5yoV_u21qgaPCIHs-63" value="&lt;span style=&quot;color: rgb(64, 64, 64); font-family: KaTeX_Math; font-size: 28px; font-style: italic; text-wrap: nowrap;&quot;&gt;τ&lt;/span&gt;&lt;span style=&quot;color: rgb(64, 64, 64); font-family: KaTeX_Math; font-style: italic; text-wrap: nowrap; font-size: 28px;&quot;&gt;&lt;sub&gt;3&lt;/sub&gt;&lt;/span&gt;" style="rounded=0;whiteSpace=wrap;html=1;fillColor=#d5e8d4;strokeColor=#82b366;fontSize=28;" vertex="1" parent="1">
          <mxGeometry x="600" y="600" width="200" height="40" as="geometry" />
        </mxCell>
        <mxCell id="SIjo5yoV_u21qgaPCIHs-49" value="" style="endArrow=classic;html=1;rounded=0;strokeWidth=3;fontSize=28;" edge="1" parent="1">
          <mxGeometry width="50" height="50" relative="1" as="geometry">
            <mxPoint x="120" y="640" as="sourcePoint" />
            <mxPoint x="2520" y="640" as="targetPoint" />
          </mxGeometry>
        </mxCell>
        <mxCell id="SIjo5yoV_u21qgaPCIHs-42" value="" style="endArrow=classic;html=1;rounded=0;fontSize=36;" edge="1" parent="1">
          <mxGeometry width="50" height="50" relative="1" as="geometry">
            <mxPoint x="119.40999999999997" y="640" as="sourcePoint" />
            <mxPoint x="119.40999999999997" y="560" as="targetPoint" />
          </mxGeometry>
        </mxCell>
        <mxCell id="SIjo5yoV_u21qgaPCIHs-46" value="" style="endArrow=classic;startArrow=classic;html=1;rounded=0;fontSize=36;" edge="1" parent="1">
          <mxGeometry width="50" height="50" relative="1" as="geometry">
            <mxPoint x="1719.37" y="640" as="sourcePoint" />
            <mxPoint x="1719.37" y="560" as="targetPoint" />
          </mxGeometry>
        </mxCell>
        <mxCell id="SIjo5yoV_u21qgaPCIHs-43" value="" style="endArrow=classic;startArrow=classic;html=1;rounded=0;fontSize=36;" edge="1" parent="1">
          <mxGeometry width="50" height="50" relative="1" as="geometry">
            <mxPoint x="520" y="640" as="sourcePoint" />
            <mxPoint x="520" y="560" as="targetPoint" />
          </mxGeometry>
        </mxCell>
      </root>
    </mxGraphModel>
  </diagram>
  <diagram name="Copy of P1-RMS vs EDF" id="wO0z4NcRnG3F1SwL8pYE">
    <mxGraphModel dx="1105" dy="755" grid="1" gridSize="10" guides="1" tooltips="1" connect="1" arrows="1" fold="1" page="1" pageScale="1" pageWidth="850" pageHeight="1100" math="0" shadow="0">
      <root>
        <mxCell id="CyDaeocU5C46DEWrw-_T-0" />
        <mxCell id="CyDaeocU5C46DEWrw-_T-1" parent="CyDaeocU5C46DEWrw-_T-0" />
        <mxCell id="CyDaeocU5C46DEWrw-_T-2" value="" style="rounded=0;whiteSpace=wrap;html=1;fillColor=none;strokeWidth=2;" vertex="1" parent="CyDaeocU5C46DEWrw-_T-1">
          <mxGeometry x="80" y="560" width="600" height="120" as="geometry" />
        </mxCell>
        <mxCell id="CyDaeocU5C46DEWrw-_T-34" value="&lt;font face=&quot;KaTeX_Math&quot; color=&quot;#404040&quot;&gt;&lt;span style=&quot;text-wrap: nowrap;&quot;&gt;&lt;i&gt;1&lt;/i&gt;&lt;/span&gt;&lt;/font&gt;" style="rounded=0;whiteSpace=wrap;html=1;fillColor=#ffe6cc;strokeColor=#d79b00;fontSize=28;" vertex="1" parent="CyDaeocU5C46DEWrw-_T-1">
          <mxGeometry x="120" y="600" width="80" height="40" as="geometry" />
        </mxCell>
        <mxCell id="CyDaeocU5C46DEWrw-_T-35" value="&lt;font face=&quot;KaTeX_Math&quot; color=&quot;#404040&quot;&gt;&lt;span style=&quot;text-wrap: nowrap;&quot;&gt;&lt;i&gt;6&lt;/i&gt;&lt;/span&gt;&lt;/font&gt;" style="rounded=0;whiteSpace=wrap;html=1;fillColor=#ffe6cc;strokeColor=#d79b00;fontSize=28;" vertex="1" parent="CyDaeocU5C46DEWrw-_T-1">
          <mxGeometry x="520" y="600" width="80" height="40" as="geometry" />
        </mxCell>
        <mxCell id="CyDaeocU5C46DEWrw-_T-51" value="" style="endArrow=classic;html=1;rounded=0;fontSize=36;" edge="1" parent="CyDaeocU5C46DEWrw-_T-1">
          <mxGeometry width="50" height="50" relative="1" as="geometry">
            <mxPoint x="119.40999999999997" y="640" as="sourcePoint" />
            <mxPoint x="119" y="600" as="targetPoint" />
          </mxGeometry>
        </mxCell>
        <mxCell id="5DnJ_3RF56N5lDYR0Enq-2" value="&lt;font face=&quot;KaTeX_Math&quot; color=&quot;#404040&quot;&gt;&lt;span style=&quot;text-wrap: nowrap;&quot;&gt;&lt;i&gt;2&lt;/i&gt;&lt;/span&gt;&lt;/font&gt;" style="rounded=0;whiteSpace=wrap;html=1;fillColor=#ffe6cc;strokeColor=#d79b00;fontSize=28;" vertex="1" parent="CyDaeocU5C46DEWrw-_T-1">
          <mxGeometry x="200" y="600" width="80" height="40" as="geometry" />
        </mxCell>
        <mxCell id="5DnJ_3RF56N5lDYR0Enq-3" value="&lt;font face=&quot;KaTeX_Math&quot; color=&quot;#404040&quot;&gt;&lt;span style=&quot;text-wrap: nowrap;&quot;&gt;&lt;i&gt;3&lt;/i&gt;&lt;/span&gt;&lt;/font&gt;" style="rounded=0;whiteSpace=wrap;html=1;fillColor=#ffe6cc;strokeColor=#d79b00;fontSize=28;" vertex="1" parent="CyDaeocU5C46DEWrw-_T-1">
          <mxGeometry x="280" y="600" width="80" height="40" as="geometry" />
        </mxCell>
        <mxCell id="5DnJ_3RF56N5lDYR0Enq-7" value="&lt;font face=&quot;KaTeX_Math&quot; color=&quot;#404040&quot;&gt;&lt;span style=&quot;text-wrap: nowrap;&quot;&gt;&lt;i&gt;4&lt;/i&gt;&lt;/span&gt;&lt;/font&gt;" style="rounded=0;whiteSpace=wrap;html=1;fillColor=#ffe6cc;strokeColor=#d79b00;fontSize=28;" vertex="1" parent="CyDaeocU5C46DEWrw-_T-1">
          <mxGeometry x="360" y="600" width="80" height="40" as="geometry" />
        </mxCell>
        <mxCell id="5DnJ_3RF56N5lDYR0Enq-8" value="&lt;font face=&quot;KaTeX_Math&quot; color=&quot;#404040&quot;&gt;&lt;span style=&quot;text-wrap: nowrap;&quot;&gt;&lt;i&gt;5&lt;/i&gt;&lt;/span&gt;&lt;/font&gt;" style="rounded=0;whiteSpace=wrap;html=1;fillColor=#ffe6cc;strokeColor=#d79b00;fontSize=28;" vertex="1" parent="CyDaeocU5C46DEWrw-_T-1">
          <mxGeometry x="440" y="600" width="80" height="40" as="geometry" />
        </mxCell>
        <mxCell id="CyDaeocU5C46DEWrw-_T-50" value="" style="endArrow=classic;html=1;rounded=0;strokeWidth=3;fontSize=28;" edge="1" parent="CyDaeocU5C46DEWrw-_T-1">
          <mxGeometry width="50" height="50" relative="1" as="geometry">
            <mxPoint x="120" y="640" as="sourcePoint" />
            <mxPoint x="640" y="640" as="targetPoint" />
          </mxGeometry>
        </mxCell>
        <mxCell id="5DnJ_3RF56N5lDYR0Enq-10" value="" style="endArrow=classic;html=1;rounded=0;fontSize=36;" edge="1" parent="CyDaeocU5C46DEWrw-_T-1">
          <mxGeometry width="50" height="50" relative="1" as="geometry">
            <mxPoint x="200.40999999999997" y="640" as="sourcePoint" />
            <mxPoint x="200" y="600" as="targetPoint" />
          </mxGeometry>
        </mxCell>
        <mxCell id="5DnJ_3RF56N5lDYR0Enq-11" value="" style="endArrow=classic;html=1;rounded=0;fontSize=36;" edge="1" parent="CyDaeocU5C46DEWrw-_T-1">
          <mxGeometry width="50" height="50" relative="1" as="geometry">
            <mxPoint x="280.40999999999997" y="640" as="sourcePoint" />
            <mxPoint x="280" y="600" as="targetPoint" />
          </mxGeometry>
        </mxCell>
        <mxCell id="5DnJ_3RF56N5lDYR0Enq-12" value="" style="endArrow=classic;html=1;rounded=0;fontSize=36;" edge="1" parent="CyDaeocU5C46DEWrw-_T-1">
          <mxGeometry width="50" height="50" relative="1" as="geometry">
            <mxPoint x="360.40999999999997" y="640" as="sourcePoint" />
            <mxPoint x="360" y="600" as="targetPoint" />
          </mxGeometry>
        </mxCell>
        <mxCell id="5DnJ_3RF56N5lDYR0Enq-14" value="" style="endArrow=classic;html=1;rounded=0;fontSize=36;" edge="1" parent="CyDaeocU5C46DEWrw-_T-1">
          <mxGeometry width="50" height="50" relative="1" as="geometry">
            <mxPoint x="440.40999999999997" y="640" as="sourcePoint" />
            <mxPoint x="440" y="600" as="targetPoint" />
          </mxGeometry>
        </mxCell>
        <mxCell id="5DnJ_3RF56N5lDYR0Enq-16" value="" style="endArrow=classic;html=1;rounded=0;fontSize=36;" edge="1" parent="CyDaeocU5C46DEWrw-_T-1">
          <mxGeometry width="50" height="50" relative="1" as="geometry">
            <mxPoint x="519.92" y="640" as="sourcePoint" />
            <mxPoint x="519.51" y="600" as="targetPoint" />
          </mxGeometry>
        </mxCell>
        <mxCell id="5DnJ_3RF56N5lDYR0Enq-17" value="" style="endArrow=classic;html=1;rounded=0;fontSize=36;" edge="1" parent="CyDaeocU5C46DEWrw-_T-1">
          <mxGeometry width="50" height="50" relative="1" as="geometry">
            <mxPoint x="600.41" y="640" as="sourcePoint" />
            <mxPoint x="600" y="600" as="targetPoint" />
          </mxGeometry>
        </mxCell>
      </root>
    </mxGraphModel>
  </diagram>
  <diagram id="JU6ttBw4H0uGF6wcmNWw" name="P2-DAG">
    <mxGraphModel dx="1050" dy="717" grid="1" gridSize="10" guides="1" tooltips="1" connect="1" arrows="1" fold="1" page="1" pageScale="1" pageWidth="850" pageHeight="1100" math="0" shadow="0">
      <root>
        <mxCell id="0" />
        <mxCell id="1" parent="0" />
        <mxCell id="Xq8atqhSIZv1WDTb9OlI-1" style="rounded=0;orthogonalLoop=1;jettySize=auto;html=1;exitX=1;exitY=0;exitDx=0;exitDy=0;entryX=0;entryY=0.5;entryDx=0;entryDy=0;" edge="1" parent="1" source="Xq8atqhSIZv1WDTb9OlI-3" target="Xq8atqhSIZv1WDTb9OlI-6">
          <mxGeometry relative="1" as="geometry" />
        </mxCell>
        <mxCell id="Xq8atqhSIZv1WDTb9OlI-2" style="rounded=0;orthogonalLoop=1;jettySize=auto;html=1;exitX=1;exitY=1;exitDx=0;exitDy=0;entryX=0;entryY=0.5;entryDx=0;entryDy=0;" edge="1" parent="1" source="Xq8atqhSIZv1WDTb9OlI-3" target="Xq8atqhSIZv1WDTb9OlI-9">
          <mxGeometry relative="1" as="geometry" />
        </mxCell>
        <mxCell id="Xq8atqhSIZv1WDTb9OlI-3" value="&lt;span style=&quot;color: rgb(64, 64, 64); font-family: KaTeX_Math; font-style: italic; text-wrap: nowrap;&quot;&gt;&lt;font style=&quot;font-size: 28px;&quot;&gt;τ&lt;/font&gt;&lt;font style=&quot;font-size: 23.3333px;&quot;&gt;&lt;sub&gt;1&lt;/sub&gt;&lt;/font&gt;&lt;/span&gt;" style="ellipse;whiteSpace=wrap;html=1;aspect=fixed;" vertex="1" parent="1">
          <mxGeometry x="280" y="520" width="40" height="40" as="geometry" />
        </mxCell>
        <mxCell id="Xq8atqhSIZv1WDTb9OlI-4" value="&lt;span style=&quot;color: rgb(64, 64, 64); font-family: KaTeX_Math; font-style: italic; text-wrap: nowrap;&quot;&gt;&lt;font style=&quot;font-size: 28px;&quot;&gt;τ&lt;/font&gt;&lt;font style=&quot;font-size: 23.3333px;&quot;&gt;&lt;sub&gt;4&lt;/sub&gt;&lt;/font&gt;&lt;/span&gt;" style="ellipse;whiteSpace=wrap;html=1;aspect=fixed;" vertex="1" parent="1">
          <mxGeometry x="440" y="520" width="40" height="40" as="geometry" />
        </mxCell>
        <mxCell id="Xq8atqhSIZv1WDTb9OlI-5" style="rounded=0;orthogonalLoop=1;jettySize=auto;html=1;exitX=1;exitY=1;exitDx=0;exitDy=0;entryX=0;entryY=0.5;entryDx=0;entryDy=0;" edge="1" parent="1" source="Xq8atqhSIZv1WDTb9OlI-6" target="Xq8atqhSIZv1WDTb9OlI-4">
          <mxGeometry relative="1" as="geometry" />
        </mxCell>
        <mxCell id="Xq8atqhSIZv1WDTb9OlI-6" value="&lt;span style=&quot;color: rgb(64, 64, 64); font-family: KaTeX_Math; font-style: italic; text-wrap: nowrap;&quot;&gt;&lt;font style=&quot;font-size: 28px;&quot;&gt;τ&lt;/font&gt;&lt;font style=&quot;font-size: 23.3333px;&quot;&gt;&lt;sub&gt;2&lt;/sub&gt;&lt;/font&gt;&lt;/span&gt;" style="ellipse;whiteSpace=wrap;html=1;aspect=fixed;" vertex="1" parent="1">
          <mxGeometry x="360" y="480" width="40" height="40" as="geometry" />
        </mxCell>
        <mxCell id="Xq8atqhSIZv1WDTb9OlI-7" style="rounded=0;orthogonalLoop=1;jettySize=auto;html=1;exitX=1;exitY=1;exitDx=0;exitDy=0;entryX=0;entryY=0.5;entryDx=0;entryDy=0;" edge="1" parent="1" source="Xq8atqhSIZv1WDTb9OlI-9" target="Xq8atqhSIZv1WDTb9OlI-10">
          <mxGeometry relative="1" as="geometry" />
        </mxCell>
        <mxCell id="Xq8atqhSIZv1WDTb9OlI-8" style="rounded=0;orthogonalLoop=1;jettySize=auto;html=1;exitX=1;exitY=0;exitDx=0;exitDy=0;entryX=0;entryY=0.5;entryDx=0;entryDy=0;" edge="1" parent="1" source="Xq8atqhSIZv1WDTb9OlI-9" target="Xq8atqhSIZv1WDTb9OlI-4">
          <mxGeometry relative="1" as="geometry" />
        </mxCell>
        <mxCell id="Xq8atqhSIZv1WDTb9OlI-9" value="&lt;span style=&quot;color: rgb(64, 64, 64); font-family: KaTeX_Math; font-style: italic; text-wrap: nowrap;&quot;&gt;&lt;font style=&quot;font-size: 28px;&quot;&gt;τ&lt;/font&gt;&lt;font style=&quot;font-size: 23.3333px;&quot;&gt;&lt;sub&gt;3&lt;/sub&gt;&lt;/font&gt;&lt;/span&gt;" style="ellipse;whiteSpace=wrap;html=1;aspect=fixed;" vertex="1" parent="1">
          <mxGeometry x="360" y="560" width="40" height="40" as="geometry" />
        </mxCell>
        <mxCell id="Xq8atqhSIZv1WDTb9OlI-10" value="&lt;span style=&quot;color: rgb(64, 64, 64); font-family: KaTeX_Math; font-style: italic; text-wrap: nowrap;&quot;&gt;&lt;font style=&quot;font-size: 28px;&quot;&gt;τ&lt;/font&gt;&lt;font style=&quot;font-size: 23.3333px;&quot;&gt;&lt;sub&gt;5&lt;/sub&gt;&lt;/font&gt;&lt;/span&gt;" style="ellipse;whiteSpace=wrap;html=1;aspect=fixed;" vertex="1" parent="1">
          <mxGeometry x="440" y="600" width="40" height="40" as="geometry" />
        </mxCell>
      </root>
    </mxGraphModel>
  </diagram>
  <diagram id="avUejnnuu0FUXA1oQr4U" name="P2-EDF">
    <mxGraphModel dx="1400" dy="956" grid="1" gridSize="10" guides="1" tooltips="1" connect="1" arrows="1" fold="1" page="1" pageScale="1" pageWidth="850" pageHeight="1100" math="0" shadow="0">
      <root>
        <mxCell id="0" />
        <mxCell id="1" parent="0" />
        <mxCell id="DczM-jaBNS5rm5XmeaTF-2" value="" style="rounded=0;whiteSpace=wrap;html=1;fillColor=none;strokeWidth=2;" vertex="1" parent="1">
          <mxGeometry x="320" y="640" width="560" height="160" as="geometry" />
        </mxCell>
        <mxCell id="DczM-jaBNS5rm5XmeaTF-3" value="0" style="text;html=1;align=center;verticalAlign=middle;resizable=0;points=[];autosize=1;strokeColor=none;fillColor=none;fontSize=24;fontFamily=calibri;" vertex="1" parent="1">
          <mxGeometry x="340" y="813" width="40" height="40" as="geometry" />
        </mxCell>
        <mxCell id="DczM-jaBNS5rm5XmeaTF-4" value="2" style="text;html=1;align=center;verticalAlign=middle;resizable=0;points=[];autosize=1;strokeColor=none;fillColor=none;fontSize=24;fontFamily=calibri;" vertex="1" parent="1">
          <mxGeometry x="420" y="813" width="40" height="40" as="geometry" />
        </mxCell>
        <mxCell id="DczM-jaBNS5rm5XmeaTF-5" value="4" style="text;html=1;align=center;verticalAlign=middle;resizable=0;points=[];autosize=1;strokeColor=none;fillColor=none;fontSize=24;fontFamily=calibri;" vertex="1" parent="1">
          <mxGeometry x="500" y="813" width="40" height="40" as="geometry" />
        </mxCell>
        <mxCell id="DczM-jaBNS5rm5XmeaTF-6" value="6" style="text;html=1;align=center;verticalAlign=middle;resizable=0;points=[];autosize=1;strokeColor=none;fillColor=none;fontSize=24;fontFamily=calibri;" vertex="1" parent="1">
          <mxGeometry x="580" y="813" width="40" height="40" as="geometry" />
        </mxCell>
        <mxCell id="DczM-jaBNS5rm5XmeaTF-7" value="8" style="text;html=1;align=center;verticalAlign=middle;resizable=0;points=[];autosize=1;strokeColor=none;fillColor=none;fontSize=24;fontFamily=calibri;" vertex="1" parent="1">
          <mxGeometry x="660" y="813" width="40" height="40" as="geometry" />
        </mxCell>
        <mxCell id="DczM-jaBNS5rm5XmeaTF-8" value="10" style="text;html=1;align=center;verticalAlign=middle;resizable=0;points=[];autosize=1;strokeColor=none;fillColor=none;fontSize=24;fontFamily=calibri;" vertex="1" parent="1">
          <mxGeometry x="735" y="813" width="50" height="40" as="geometry" />
        </mxCell>
        <mxCell id="DczM-jaBNS5rm5XmeaTF-9" value="12" style="text;html=1;align=center;verticalAlign=middle;resizable=0;points=[];autosize=1;strokeColor=none;fillColor=none;fontSize=24;fontFamily=calibri;" vertex="1" parent="1">
          <mxGeometry x="815" y="813" width="50" height="40" as="geometry" />
        </mxCell>
        <mxCell id="RG8DCmfxzXTrD1OF2auA-1" value="&lt;span style=&quot;color: rgb(64, 64, 64); font-family: KaTeX_Math; font-size: 28px; font-style: italic; text-wrap: nowrap;&quot;&gt;τ&lt;/span&gt;&lt;span style=&quot;color: rgb(64, 64, 64); font-family: KaTeX_Math; font-style: italic; text-wrap: nowrap; font-size: 28px;&quot;&gt;&lt;sub&gt;1&lt;/sub&gt;&lt;/span&gt;" style="rounded=0;whiteSpace=wrap;html=1;fillColor=#dae8fc;strokeColor=#6c8ebf;fontSize=28;" vertex="1" parent="1">
          <mxGeometry x="360" y="720" width="80" height="40" as="geometry" />
        </mxCell>
        <mxCell id="RG8DCmfxzXTrD1OF2auA-2" value="&lt;span style=&quot;color: rgb(64, 64, 64); font-family: KaTeX_Math; font-size: 28px; font-style: italic; text-wrap: nowrap;&quot;&gt;τ&lt;/span&gt;&lt;span style=&quot;color: rgb(64, 64, 64); font-family: KaTeX_Math; font-style: italic; text-wrap: nowrap; font-size: 28px;&quot;&gt;&lt;sub&gt;2&lt;/sub&gt;&lt;/span&gt;" style="rounded=0;whiteSpace=wrap;html=1;fillColor=#d5e8d4;strokeColor=#82b366;fontSize=28;" vertex="1" parent="1">
          <mxGeometry x="440" y="720" width="40" height="40" as="geometry" />
        </mxCell>
        <mxCell id="qMTuvJh8fRt-kdibrfwK-1" value="&lt;span style=&quot;color: rgb(64, 64, 64); font-family: KaTeX_Math; font-size: 28px; font-style: italic; text-wrap: nowrap;&quot;&gt;τ&lt;/span&gt;&lt;span style=&quot;color: rgb(64, 64, 64); font-family: KaTeX_Math; font-style: italic; text-wrap: nowrap; font-size: 28px;&quot;&gt;&lt;sub&gt;3&lt;/sub&gt;&lt;/span&gt;" style="rounded=0;whiteSpace=wrap;html=1;fillColor=#ffe6cc;strokeColor=#d79b00;fontSize=28;" vertex="1" parent="1">
          <mxGeometry x="480" y="720" width="120" height="40" as="geometry" />
        </mxCell>
        <mxCell id="5t06E07aEKrNspCDhE0g-1" value="&lt;span style=&quot;color: rgb(64, 64, 64); font-family: KaTeX_Math; font-size: 28px; font-style: italic; text-wrap: nowrap;&quot;&gt;τ&lt;/span&gt;&lt;span style=&quot;color: rgb(64, 64, 64); font-family: KaTeX_Math; font-style: italic; text-wrap: nowrap; font-size: 28px;&quot;&gt;&lt;sub&gt;4&lt;/sub&gt;&lt;/span&gt;" style="rounded=0;whiteSpace=wrap;html=1;fillColor=#f8cecc;strokeColor=#b85450;fontSize=28;" vertex="1" parent="1">
          <mxGeometry x="600" y="720" width="80" height="40" as="geometry" />
        </mxCell>
        <mxCell id="5t06E07aEKrNspCDhE0g-2" value="&lt;span style=&quot;color: rgb(64, 64, 64); font-family: KaTeX_Math; font-size: 28px; font-style: italic; text-wrap: nowrap;&quot;&gt;τ&lt;/span&gt;&lt;span style=&quot;color: rgb(64, 64, 64); font-family: KaTeX_Math; font-style: italic; text-wrap: nowrap; font-size: 28px;&quot;&gt;&lt;sub&gt;5&lt;/sub&gt;&lt;/span&gt;" style="rounded=0;whiteSpace=wrap;html=1;fillColor=#e1d5e7;strokeColor=#9673a6;fontSize=28;" vertex="1" parent="1">
          <mxGeometry x="680" y="720" width="80" height="40" as="geometry" />
        </mxCell>
        <mxCell id="DczM-jaBNS5rm5XmeaTF-64" value="" style="endArrow=classic;html=1;rounded=0;strokeWidth=3;" edge="1" parent="1">
          <mxGeometry width="50" height="50" relative="1" as="geometry">
            <mxPoint x="360" y="760" as="sourcePoint" />
            <mxPoint x="840" y="760" as="targetPoint" />
          </mxGeometry>
        </mxCell>
        <mxCell id="DczM-jaBNS5rm5XmeaTF-60" value="" style="endArrow=classic;html=1;rounded=0;" edge="1" parent="1">
          <mxGeometry width="50" height="50" relative="1" as="geometry">
            <mxPoint x="359.40999999999997" y="760" as="sourcePoint" />
            <mxPoint x="359.40999999999997" y="680" as="targetPoint" />
          </mxGeometry>
        </mxCell>
      </root>
    </mxGraphModel>
  </diagram>
  <diagram id="5_bO4UDxDYTLXIOMXHd_" name="P2-EDF* DAG">
    <mxGraphModel dx="1400" dy="956" grid="1" gridSize="10" guides="1" tooltips="1" connect="1" arrows="1" fold="1" page="1" pageScale="1" pageWidth="850" pageHeight="1100" math="0" shadow="0">
      <root>
        <mxCell id="0" />
        <mxCell id="1" parent="0" />
        <mxCell id="68pPR18OnMZSQ6RylhNi-5" style="rounded=0;orthogonalLoop=1;jettySize=auto;html=1;exitX=1;exitY=0;exitDx=0;exitDy=0;entryX=0;entryY=0.5;entryDx=0;entryDy=0;" edge="1" parent="1" source="JFkOAxfGtLpLYDXlzTkP-1" target="68pPR18OnMZSQ6RylhNi-2">
          <mxGeometry relative="1" as="geometry" />
        </mxCell>
        <mxCell id="68pPR18OnMZSQ6RylhNi-6" style="rounded=0;orthogonalLoop=1;jettySize=auto;html=1;exitX=1;exitY=1;exitDx=0;exitDy=0;entryX=0;entryY=0.5;entryDx=0;entryDy=0;" edge="1" parent="1" source="JFkOAxfGtLpLYDXlzTkP-1" target="68pPR18OnMZSQ6RylhNi-3">
          <mxGeometry relative="1" as="geometry" />
        </mxCell>
        <mxCell id="JFkOAxfGtLpLYDXlzTkP-1" value="&lt;span style=&quot;color: rgb(64, 64, 64); font-family: KaTeX_Math; font-style: italic; text-wrap: nowrap;&quot;&gt;&lt;font style=&quot;font-size: 28px;&quot;&gt;τ&lt;/font&gt;&lt;font style=&quot;font-size: 23.3333px;&quot;&gt;&lt;sub&gt;1&lt;/sub&gt;&lt;/font&gt;&lt;/span&gt;" style="ellipse;whiteSpace=wrap;html=1;aspect=fixed;" vertex="1" parent="1">
          <mxGeometry x="360" y="320" width="40" height="40" as="geometry" />
        </mxCell>
        <mxCell id="68pPR18OnMZSQ6RylhNi-1" value="&lt;span style=&quot;color: rgb(64, 64, 64); font-family: KaTeX_Math; font-style: italic; text-wrap: nowrap;&quot;&gt;&lt;font style=&quot;font-size: 28px;&quot;&gt;τ&lt;/font&gt;&lt;font style=&quot;font-size: 23.3333px;&quot;&gt;&lt;sub&gt;4&lt;/sub&gt;&lt;/font&gt;&lt;/span&gt;" style="ellipse;whiteSpace=wrap;html=1;aspect=fixed;" vertex="1" parent="1">
          <mxGeometry x="520" y="320" width="40" height="40" as="geometry" />
        </mxCell>
        <mxCell id="68pPR18OnMZSQ6RylhNi-7" style="rounded=0;orthogonalLoop=1;jettySize=auto;html=1;exitX=1;exitY=1;exitDx=0;exitDy=0;entryX=0;entryY=0.5;entryDx=0;entryDy=0;" edge="1" parent="1" source="68pPR18OnMZSQ6RylhNi-2" target="68pPR18OnMZSQ6RylhNi-1">
          <mxGeometry relative="1" as="geometry" />
        </mxCell>
        <mxCell id="68pPR18OnMZSQ6RylhNi-2" value="&lt;span style=&quot;color: rgb(64, 64, 64); font-family: KaTeX_Math; font-style: italic; text-wrap: nowrap;&quot;&gt;&lt;font style=&quot;font-size: 28px;&quot;&gt;τ&lt;/font&gt;&lt;font style=&quot;font-size: 23.3333px;&quot;&gt;&lt;sub&gt;2&lt;/sub&gt;&lt;/font&gt;&lt;/span&gt;" style="ellipse;whiteSpace=wrap;html=1;aspect=fixed;" vertex="1" parent="1">
          <mxGeometry x="440" y="280" width="40" height="40" as="geometry" />
        </mxCell>
        <mxCell id="68pPR18OnMZSQ6RylhNi-8" style="rounded=0;orthogonalLoop=1;jettySize=auto;html=1;exitX=1;exitY=1;exitDx=0;exitDy=0;entryX=0;entryY=0.5;entryDx=0;entryDy=0;" edge="1" parent="1" source="68pPR18OnMZSQ6RylhNi-3" target="68pPR18OnMZSQ6RylhNi-4">
          <mxGeometry relative="1" as="geometry" />
        </mxCell>
        <mxCell id="68pPR18OnMZSQ6RylhNi-9" style="rounded=0;orthogonalLoop=1;jettySize=auto;html=1;exitX=1;exitY=0;exitDx=0;exitDy=0;entryX=0;entryY=0.5;entryDx=0;entryDy=0;" edge="1" parent="1" source="68pPR18OnMZSQ6RylhNi-3" target="68pPR18OnMZSQ6RylhNi-1">
          <mxGeometry relative="1" as="geometry" />
        </mxCell>
        <mxCell id="68pPR18OnMZSQ6RylhNi-3" value="&lt;span style=&quot;color: rgb(64, 64, 64); font-family: KaTeX_Math; font-style: italic; text-wrap: nowrap;&quot;&gt;&lt;font style=&quot;font-size: 28px;&quot;&gt;τ&lt;/font&gt;&lt;font style=&quot;font-size: 23.3333px;&quot;&gt;&lt;sub&gt;3&lt;/sub&gt;&lt;/font&gt;&lt;/span&gt;" style="ellipse;whiteSpace=wrap;html=1;aspect=fixed;" vertex="1" parent="1">
          <mxGeometry x="440" y="360" width="40" height="40" as="geometry" />
        </mxCell>
        <mxCell id="68pPR18OnMZSQ6RylhNi-4" value="&lt;span style=&quot;color: rgb(64, 64, 64); font-family: KaTeX_Math; font-style: italic; text-wrap: nowrap;&quot;&gt;&lt;font style=&quot;font-size: 28px;&quot;&gt;τ&lt;/font&gt;&lt;font style=&quot;font-size: 23.3333px;&quot;&gt;&lt;sub&gt;5&lt;/sub&gt;&lt;/font&gt;&lt;/span&gt;" style="ellipse;whiteSpace=wrap;html=1;aspect=fixed;" vertex="1" parent="1">
          <mxGeometry x="520" y="400" width="40" height="40" as="geometry" />
        </mxCell>
        <mxCell id="68pPR18OnMZSQ6RylhNi-11" value="C&lt;sub&gt;2&lt;/sub&gt;&amp;nbsp;= 1&lt;br&gt;d&lt;sub&gt;2&lt;/sub&gt; = 7&lt;div&gt;r&lt;sub&gt;2&lt;/sub&gt; = 1&lt;/div&gt;&lt;div&gt;&lt;div&gt;r&lt;sup&gt;&#39;&lt;/sup&gt;&lt;sub&gt;2&lt;/sub&gt;&amp;nbsp;= 2&lt;br&gt;&lt;/div&gt;&lt;div&gt;d&lt;sup&gt;&#39;&lt;/sup&gt;&lt;sub&gt;2&lt;/sub&gt;&amp;nbsp;= 7&lt;/div&gt;&lt;/div&gt;" style="text;html=1;whiteSpace=wrap;overflow=hidden;rounded=0;spacing=2;fontSize=18;fontFamily=Times New Roman;fontStyle=2" vertex="1" parent="1">
          <mxGeometry x="440" y="130" width="80" height="140" as="geometry" />
        </mxCell>
        <mxCell id="68pPR18OnMZSQ6RylhNi-14" value="C&lt;sub&gt;3&lt;/sub&gt; = 3&lt;br&gt;d&lt;sub&gt;3&lt;/sub&gt; = 8&lt;div&gt;r&lt;sub&gt;3&lt;/sub&gt; = 3&lt;/div&gt;&lt;div&gt;&lt;div&gt;r&lt;sup&gt;&#39;&lt;/sup&gt;&lt;sub&gt;3&lt;/sub&gt;&amp;nbsp;= 3&lt;br&gt;&lt;/div&gt;&lt;div&gt;d&lt;sup&gt;&#39;&lt;/sup&gt;&lt;sub&gt;3&lt;/sub&gt;&amp;nbsp;= 8&lt;/div&gt;&lt;/div&gt;" style="text;html=1;whiteSpace=wrap;overflow=hidden;rounded=0;spacing=2;fontSize=18;fontFamily=Times New Roman;fontStyle=2" vertex="1" parent="1">
          <mxGeometry x="440" y="410" width="80" height="140" as="geometry" />
        </mxCell>
        <mxCell id="68pPR18OnMZSQ6RylhNi-15" value="C&lt;sub&gt;5&lt;/sub&gt;&amp;nbsp;= 2&lt;br&gt;d&lt;sub&gt;5&lt;/sub&gt; = 11&lt;div&gt;r&lt;sub&gt;5&lt;/sub&gt; = 5&lt;/div&gt;&lt;div&gt;&lt;div&gt;r&lt;sup&gt;&#39;&lt;/sup&gt;&lt;sub&gt;5&lt;/sub&gt;&amp;nbsp;= 6&lt;br&gt;&lt;/div&gt;&lt;div&gt;d&lt;sup&gt;&#39;&lt;/sup&gt;&lt;sub&gt;5&lt;/sub&gt;&amp;nbsp;= 11&lt;/div&gt;&lt;/div&gt;" style="text;html=1;whiteSpace=wrap;overflow=hidden;rounded=0;spacing=2;fontSize=18;fontFamily=Times New Roman;fontStyle=2" vertex="1" parent="1">
          <mxGeometry x="520" y="440" width="80" height="150" as="geometry" />
        </mxCell>
        <mxCell id="68pPR18OnMZSQ6RylhNi-16" value="C&lt;sub&gt;4&lt;/sub&gt; = 2&lt;br&gt;d&lt;sub&gt;4&lt;/sub&gt; = 10&lt;div&gt;r&lt;sub&gt;4&lt;/sub&gt; =&amp;nbsp;&lt;span style=&quot;background-color: initial;&quot;&gt;4&lt;/span&gt;&lt;/div&gt;&lt;div&gt;&lt;div&gt;r&lt;sup&gt;&#39;&lt;/sup&gt;&lt;sub&gt;4&lt;/sub&gt;&amp;nbsp;= 6&lt;br&gt;&lt;/div&gt;&lt;div&gt;d&lt;sup&gt;&#39;&lt;/sup&gt;&lt;sub&gt;4&lt;/sub&gt;&amp;nbsp;= 10&lt;/div&gt;&lt;/div&gt;" style="text;html=1;whiteSpace=wrap;overflow=hidden;rounded=0;spacing=2;fontSize=18;fontFamily=Times New Roman;fontStyle=2" vertex="1" parent="1">
          <mxGeometry x="520" y="170" width="80" height="140" as="geometry" />
        </mxCell>
        <mxCell id="68pPR18OnMZSQ6RylhNi-17" value="C&lt;sub&gt;1&lt;/sub&gt;&amp;nbsp;= 2&lt;br&gt;d&lt;sub&gt;1&lt;/sub&gt; = 6&lt;div&gt;r&lt;sub&gt;1&lt;/sub&gt; = 0&lt;/div&gt;&lt;div&gt;r&lt;sup&gt;&#39;&lt;/sup&gt;&lt;sub&gt;1&lt;/sub&gt;&amp;nbsp;= 0&lt;br&gt;&lt;/div&gt;&lt;div&gt;d&lt;sup&gt;&#39;&lt;/sup&gt;&lt;sub&gt;1&lt;/sub&gt;&amp;nbsp;= 5&lt;br&gt;&lt;/div&gt;" style="text;html=1;whiteSpace=wrap;overflow=hidden;rounded=0;spacing=2;fontSize=18;fontFamily=Times New Roman;fontStyle=2" vertex="1" parent="1">
          <mxGeometry x="360" y="170" width="80" height="140" as="geometry" />
        </mxCell>
      </root>
    </mxGraphModel>
  </diagram>
</mxfile>
